<svg width="154" height="40" viewBox="0 0 154 40" fill="none" xmlns="http://www.w3.org/2000/svg">
<path d="M0.5 1L0.5 39" stroke="#EFC2B3"/>
<path d="M71 1V39" stroke="#EFC2B3"/>
<line y1="0.5" x2="71" y2="0.5" stroke="#EFC2B3"/>
<line y1="39.5" x2="71" y2="39.5" stroke="#EFC2B3"/>
<line x1="36.5" y1="1" x2="36.5" y2="39" stroke="#EFC2B3"/>
<line x1="1" y1="27.5" x2="36" y2="27.5" stroke="#EFC2B3"/>
<line x1="36" y1="12.5" x2="71" y2="12.5" stroke="#EFC2B3"/>
<line x1="9.5" y1="5" x2="9.5" y2="24" stroke="#EFC2B3"/>
<line x1="18.5" y1="5" x2="18.5" y2="24" stroke="#EFC2B3"/>
<line x1="28.5" y1="5" x2="28.5" y2="24" stroke="#EFC2B3"/>
<path d="M66.5 26C66.5 32.3143 60.942 37.5 54 37.5C47.058 37.5 41.5 32.3143 41.5 26C41.5 19.6857 47.058 14.5 54 14.5C60.942 14.5 66.5 19.6857 66.5 26Z" fill="white" stroke="#EFC2B3"/>
<path d="M81.0568 16.2727H82.3182L85.2841 23.517H85.3864L88.3523 16.2727H89.6136V25H88.625V18.3693H88.5398L85.8125 25H84.858L82.1307 18.3693H82.0455V25H81.0568V16.2727ZM99.0962 20.6364C99.0962 21.5568 98.93 22.3523 98.5977 23.0227C98.2653 23.6932 97.8093 24.2102 97.2298 24.5739C96.6502 24.9375 95.9883 25.1193 95.244 25.1193C94.4996 25.1193 93.8377 24.9375 93.2582 24.5739C92.6786 24.2102 92.2227 23.6932 91.8903 23.0227C91.5579 22.3523 91.3917 21.5568 91.3917 20.6364C91.3917 19.7159 91.5579 18.9205 91.8903 18.25C92.2227 17.5795 92.6786 17.0625 93.2582 16.6989C93.8377 16.3352 94.4996 16.1534 95.244 16.1534C95.9883 16.1534 96.6502 16.3352 97.2298 16.6989C97.8093 17.0625 98.2653 17.5795 98.5977 18.25C98.93 18.9205 99.0962 19.7159 99.0962 20.6364ZM98.0735 20.6364C98.0735 19.8807 97.9471 19.2429 97.6942 18.723C97.4442 18.2031 97.1048 17.8097 96.6758 17.5426C96.2496 17.2756 95.7724 17.142 95.244 17.142C94.7156 17.142 94.2369 17.2756 93.8079 17.5426C93.3817 17.8097 93.0423 18.2031 92.7894 18.723C92.5394 19.2429 92.4144 19.8807 92.4144 20.6364C92.4144 21.392 92.5394 22.0298 92.7894 22.5497C93.0423 23.0696 93.3817 23.4631 93.8079 23.7301C94.2369 23.9972 94.7156 24.1307 95.244 24.1307C95.7724 24.1307 96.2496 23.9972 96.6758 23.7301C97.1048 23.4631 97.4442 23.0696 97.6942 22.5497C97.9471 22.0298 98.0735 21.392 98.0735 20.6364ZM107.794 16.2727V25H106.771L102.015 18.1477H101.93V25H100.873V16.2727H101.896L106.669 23.142H106.754V16.2727H107.794ZM117.272 20.6364C117.272 21.5568 117.106 22.3523 116.773 23.0227C116.441 23.6932 115.985 24.2102 115.406 24.5739C114.826 24.9375 114.164 25.1193 113.42 25.1193C112.675 25.1193 112.013 24.9375 111.434 24.5739C110.854 24.2102 110.398 23.6932 110.066 23.0227C109.734 22.3523 109.567 21.5568 109.567 20.6364C109.567 19.7159 109.734 18.9205 110.066 18.25C110.398 17.5795 110.854 17.0625 111.434 16.6989C112.013 16.3352 112.675 16.1534 113.42 16.1534C114.164 16.1534 114.826 16.3352 115.406 16.6989C115.985 17.0625 116.441 17.5795 116.773 18.25C117.106 18.9205 117.272 19.7159 117.272 20.6364ZM116.249 20.6364C116.249 19.8807 116.123 19.2429 115.87 18.723C115.62 18.2031 115.281 17.8097 114.852 17.5426C114.425 17.2756 113.948 17.142 113.42 17.142C112.891 17.142 112.413 17.2756 111.984 17.5426C111.558 17.8097 111.218 18.2031 110.965 18.723C110.715 19.2429 110.59 19.8807 110.59 20.6364C110.59 21.392 110.715 22.0298 110.965 22.5497C111.218 23.0696 111.558 23.4631 111.984 23.7301C112.413 23.9972 112.891 24.1307 113.42 24.1307C113.948 24.1307 114.425 23.9972 114.852 23.7301C115.281 23.4631 115.62 23.0696 115.87 22.5497C116.123 22.0298 116.249 21.392 116.249 20.6364ZM125.015 19C124.921 18.7131 124.798 18.456 124.644 18.2287C124.494 17.9986 124.313 17.8026 124.103 17.6406C123.896 17.4787 123.66 17.3551 123.396 17.2699C123.131 17.1847 122.842 17.142 122.526 17.142C122.009 17.142 121.539 17.2756 121.116 17.5426C120.692 17.8097 120.356 18.2031 120.106 18.723C119.856 19.2429 119.731 19.8807 119.731 20.6364C119.731 21.392 119.857 22.0298 120.11 22.5497C120.363 23.0696 120.705 23.4631 121.137 23.7301C121.569 23.9972 122.055 24.1307 122.594 24.1307C123.094 24.1307 123.535 24.0241 123.915 23.8111C124.299 23.5952 124.597 23.2912 124.81 22.8991C125.026 22.5043 125.134 22.0398 125.134 21.5057L125.458 21.5739H122.833V20.6364H126.157V21.5739C126.157 22.2926 126.004 22.9176 125.697 23.4489C125.393 23.9801 124.972 24.392 124.435 24.6847C123.901 24.9744 123.288 25.1193 122.594 25.1193C121.822 25.1193 121.143 24.9375 120.558 24.5739C119.975 24.2102 119.521 23.6932 119.194 23.0227C118.87 22.3523 118.708 21.5568 118.708 20.6364C118.708 19.946 118.8 19.3253 118.985 18.7741C119.173 18.2202 119.437 17.7486 119.778 17.3594C120.119 16.9702 120.522 16.6719 120.988 16.4645C121.454 16.2571 121.967 16.1534 122.526 16.1534C122.987 16.1534 123.415 16.223 123.813 16.3622C124.214 16.4986 124.57 16.6932 124.883 16.946C125.198 17.196 125.461 17.4957 125.671 17.8452C125.881 18.1918 126.026 18.5767 126.106 19H125.015ZM127.967 25V16.2727H130.916C131.598 16.2727 132.157 16.3892 132.595 16.6222C133.032 16.8523 133.356 17.169 133.566 17.5724C133.777 17.9759 133.882 18.4347 133.882 18.9489C133.882 19.4631 133.777 19.919 133.566 20.3168C133.356 20.7145 133.034 21.027 132.599 21.2543C132.164 21.4787 131.609 21.5909 130.933 21.5909H128.547V20.6364H130.899C131.365 20.6364 131.74 20.5682 132.024 20.4318C132.311 20.2955 132.518 20.1023 132.646 19.8523C132.777 19.5994 132.842 19.2983 132.842 18.9489C132.842 18.5994 132.777 18.294 132.646 18.0327C132.515 17.7713 132.306 17.5696 132.02 17.4276C131.733 17.2827 131.353 17.2102 130.882 17.2102H129.024V25H127.967ZM132.075 21.0795L134.223 25H132.995L130.882 21.0795H132.075ZM136.001 25H134.893L138.097 16.2727H139.188L142.393 25H141.285L138.677 17.6534H138.609L136.001 25ZM136.41 21.5909H140.876V22.5284H136.41V21.5909ZM143.752 16.2727H145.013L147.979 23.517H148.082L151.048 16.2727H152.309V25H151.32V18.3693H151.235L148.508 25H147.553L144.826 18.3693H144.741V25H143.752V16.2727Z" fill="#EFC2B3"/>
</svg>
